# xmcd CD database file
#
# Track frame offsets:
#	150
#	16615
#	29325
#	48315
#	61407
#	74887
#	89177
#	107607
#	122122
#	136037
#	152115
#	167015
#	196860
#	211482
#
# Disc length: 2977 seconds
#
# Revision: 5
# Processed by: cddbd v1.5.2PL0 Copyright (c) Steve Scherf et al.
# Submitted via: CDex 1.70beta2
#
DISCID=c40b9f0e
DTITLE=Cash,Nelson,Jennings,Kristofferson - The Highwaymen Ride Again
DYEAR=1991
DGENRE=Country
TTITLE0=The Twentieth Century Is Almost Over
TTITLE1=How Do You Feel About Foolin' Around
TTITLE2=Heroes
TTITLE3=Down To Her Socks
TTITLE4=Blackjack County Chains
TTITLE5=They're All The Same
TTITLE6=A White Shade Of Pale
TTITLE7=The Last Cowboy Song
TTITLE8=The Ballad Of Forty Dollars
TTITLE9=The Pilgrim: Chapter 33
TTITLE10=Casey's Last Ride
TTITLE11=Under The Gun
TTITLE12=Eye Of The Storm
TTITLE13=Why Baby Why
EXTD=YEAR: 1991
EXTT0=
EXTT1=Willie Nelson and Kris Kristofferson
EXTT2=Johnny Cash and Waylon Jennings
EXTT3=Kris Kristofferson and Willie Nelson
EXTT4=Willie Nelson and Waylon Jennings
EXTT5=Johnny Cash
EXTT6=Willie Nelson
EXTT7=
EXTT8=Johnny Cash and Waylon Jennings
EXTT9=Willie Nelson
EXTT10=Johnny Cash
EXTT11=Kris Kristofferson and Willie Nelson
EXTT12=Willie Nelson and Kris Kristofferson
EXTT13=Willie Nelson and Waylon Jennings
PLAYORDER=
